<svg xmlns="http://www.w3.org/2000/svg"  viewBox="0 0 64 64" width="64px" height="64px"><path fill="#e7ecf0" d="M43.29,29.7C48.13,26.77,53.36,13.77,50.13,8c-4.41,0-9.28,7.8-9.28,7.8Z"/><path fill="#dbe4eb" d="M50.13,8c7,6.64,3.95,18.33-.89,21.26l-4.16-6.67C45.36,20.4,46.73,11.22,50.13,8Z"/><path fill="#e7ecf0" d="M20.71,29.7C15.87,26.77,10.64,13.77,13.87,8c4.4,0,9.28,7.8,9.28,7.8Z"/><path fill="#dbe4eb" d="M13.87,8c-7,6.64-3.95,18.33.89,21.26l4.16-6.67C18.64,20.4,17.27,11.22,13.87,8Z"/><path fill="#f7f8fa" d="M38.78,53.06c1.34-.63,2.38-3.62,3.16-4.54,3,1.58,7.45,1.27,7.45,1.27L48.91,45a34.07,34.07,0,0,1,5-1.1s-1.69-.14-2-5.65c-.26-4.27-2.7-10.93-7.58-15.92a41.4,41.4,0,0,0,1.08-6.29,36.29,36.29,0,0,0-4.58-.27,20.68,20.68,0,0,0-4.91.48A19.3,19.3,0,0,0,32,17.57a19.3,19.3,0,0,0-3.94-1.29,20.68,20.68,0,0,0-4.91-.48,36.29,36.29,0,0,0-4.58.27,41.4,41.4,0,0,0,1.08,6.29c-4.88,5-7.32,11.65-7.58,15.92-.33,5.51-2,5.65-2,5.65a34.07,34.07,0,0,1,5,1.1l-.48,4.76s4.5.31,7.45-1.27c.79.92,1.82,3.91,3.16,4.54a7.63,7.63,0,0,1,2.53-1A16.31,16.31,0,0,0,32,56a15.83,15.83,0,0,0,4.23-4A7.78,7.78,0,0,1,38.78,53.06Z"/><path fill="#756d78" d="M34.75,34.57c0,1.52-1.23,3.19-2.75,3.19s-2.75-1.67-2.75-3.19A4.94,4.94,0,0,1,32,33.84,4.94,4.94,0,0,1,34.75,34.57Z"/><path fill="#dd5891" d="M28.34,42.75a4.37,4.37,0,0,0,7.32,0L32,40.35Z"/><path fill="#756d78" d="M28.17,30.09a2.45,2.45,0,1,1-2.45-2.45A2.45,2.45,0,0,1,28.17,30.09Z"/><path fill="#756d78" d="M40.73,30.09a2.45,2.45,0,1,1-2.45-2.45A2.45,2.45,0,0,1,40.73,30.09Z"/><path fill="#e7ecf0" d="M40.85,15.8c-.69,0-1.34,0-2,.06,2.31.1,3,.21,3,.21a42.1,42.1,0,0,1-1.09,6.29c4.88,5,7.32,11.65,7.58,15.92.33,5.51,2,5.65,2,5.65a34.07,34.07,0,0,0-5,1.1l.47,4.61a21.21,21.21,0,0,0,3.58.15L48.91,45a34.07,34.07,0,0,1,5-1.1s-1.69-.14-2-5.65c-.26-4.27-2.7-10.93-7.58-15.92a41.4,41.4,0,0,0,1.08-6.29A36.29,36.29,0,0,0,40.85,15.8Z"/><path d="M55.17,19.87a14.89,14.89,0,0,0-4.35-12.6A1,1,0,0,0,50.13,7c-4.34,0-8.64,6-9.84,7.82A21.76,21.76,0,0,0,32,16.47a21.5,21.5,0,0,0-3.72-1.16,21.8,21.8,0,0,0-4.57-.49C22.51,13,18.21,7,13.87,7a1,1,0,0,0-.69.27,14.92,14.92,0,0,0-4.35,12.6c.43,4.05,2.27,7.8,4.68,9.71a24.6,24.6,0,0,0-2.43,8.64C10.85,42,9.94,42.86,9.81,43a1,1,0,0,0-.76.94,1,1,0,0,0,.85,1,32.73,32.73,0,0,1,4.11.84l-.4,3.92a1,1,0,0,0,.23.75,1,1,0,0,0,.7.35,18.44,18.44,0,0,0,7.16-1c.13.23.26.48.4.74.71,1.35,1.52,2.88,2.69,3.43a1,1,0,0,0,.94,0,9.38,9.38,0,0,1,1.65-.8l.33.39a13.35,13.35,0,0,0,3.78,3.35,1,1,0,0,0,1,0,13.48,13.48,0,0,0,3.79-3.37l.31-.37a11.65,11.65,0,0,1,1.67.8,1,1,0,0,0,.93,0c1.17-.55,2-2.08,2.69-3.43.14-.26.27-.51.4-.74a18.42,18.42,0,0,0,7.16,1,1,1,0,0,0,.7-.35,1,1,0,0,0,.23-.75L50,45.76a32.73,32.73,0,0,1,4.11-.84,1,1,0,0,0,.85-1,1,1,0,0,0-.76-.94c-.13-.1-1-.92-1.27-4.74a24.65,24.65,0,0,0-2.43-8.63C52.9,27.67,54.74,23.92,55.17,19.87ZM47.52,10a26.49,26.49,0,0,0-2,5.12c-.21,0-1-.13-2.87-.21A21.35,21.35,0,0,1,47.52,10ZM21.3,14.87c-1.91.08-2.66.18-2.87.21A26.49,26.49,0,0,0,16.48,10,21.15,21.15,0,0,1,21.3,14.87ZM10.82,19.66a13.1,13.1,0,0,1,3-10.17C16.55,13,17.7,21,17.93,22.79a29.76,29.76,0,0,0-3.5,5C12.6,26.12,11.17,23,10.82,19.66ZM52,43.25a34.2,34.2,0,0,0-3.35.82,1,1,0,0,0-.71,1.06l.38,3.68a13.72,13.72,0,0,1-5.88-1.17,1,1,0,0,0-1.24.23,10.79,10.79,0,0,0-1,1.72,12.09,12.09,0,0,1-1.43,2.29A6.07,6.07,0,0,0,36.2,51a1,1,0,0,0-.69.31c-.25.26-.49.55-.75.86A11.49,11.49,0,0,1,32,54.82a11.79,11.79,0,0,1-2.75-2.59c-.27-.32-.52-.62-.78-.88a1,1,0,0,0-.68-.31h-.06a6.21,6.21,0,0,0-2.44.83,11.33,11.33,0,0,1-1.42-2.28,11.53,11.53,0,0,0-1-1.72,1,1,0,0,0-1.24-.24,13.59,13.59,0,0,1-5.88,1.18l.38-3.68a1,1,0,0,0-.71-1.06A34.2,34.2,0,0,0,12,43.25a12.9,12.9,0,0,0,1-4.91c.24-4,2.63-10.51,7.3-15.28a1,1,0,0,0,.25-1A37.26,37.26,0,0,1,19.67,17c4.5-.34,6.36-.1,8.18.3a17.4,17.4,0,0,1,3.71,1.21,1,1,0,0,0,.88,0,17.4,17.4,0,0,1,3.71-1.21,25.38,25.38,0,0,1,8.18-.3,37.26,37.26,0,0,1-.95,5.14,1,1,0,0,0,.25,1c4.67,4.77,7.06,11.26,7.3,15.28A12.9,12.9,0,0,0,52,43.25Zm-5.9-20.46c.37-3.08,1.67-10.09,4.08-13.29a13.11,13.11,0,0,1,3,10.16c-.35,3.31-1.78,6.46-3.61,8.11A29.76,29.76,0,0,0,46.07,22.79Z"/><path d="M40.39,40.75a4.34,4.34,0,0,1-7.31-2.21,4.38,4.38,0,0,0,2.67-4,1,1,0,0,0-.41-.8A5.79,5.79,0,0,0,32,32.84a5.83,5.83,0,0,0-3.34.93,1,1,0,0,0-.41.8,4.38,4.38,0,0,0,2.67,4A4.35,4.35,0,0,1,26.68,42h0a4.31,4.31,0,0,1-3.06-1.27,1,1,0,0,0-1.41,0,1,1,0,0,0,0,1.42A6.3,6.3,0,0,0,26.67,44h0A6.42,6.42,0,0,0,28,43.87a5.25,5.25,0,0,0,8,0,6.43,6.43,0,0,0,1.32.15,6.3,6.3,0,0,0,4.47-1.85,1,1,0,0,0,0-1.42A1,1,0,0,0,40.39,40.75ZM32,34.84a4.45,4.45,0,0,1,1.67.3,2.11,2.11,0,0,1-1.52,1.58l-.15,0-.15,0a2.11,2.11,0,0,1-1.52-1.58A4.45,4.45,0,0,1,32,34.84Zm0,8.89a3.28,3.28,0,0,1-2-.68,6.81,6.81,0,0,0,1.14-.88A6.59,6.59,0,0,0,32,41.11a6.11,6.11,0,0,0,.85,1,6.38,6.38,0,0,0,1.14.89A3.28,3.28,0,0,1,32,43.73Z"/><path d="M25.72,33.54a3.45,3.45,0,1,0-3.45-3.45A3.46,3.46,0,0,0,25.72,33.54Zm0-4.9a1.45,1.45,0,1,1-1.45,1.45A1.45,1.45,0,0,1,25.72,28.64Z"/><path d="M38.28,33.54a3.45,3.45,0,1,0-3.45-3.45A3.46,3.46,0,0,0,38.28,33.54Zm0-4.9a1.45,1.45,0,1,1-1.45,1.45A1.45,1.45,0,0,1,38.28,28.64Z"/></svg>