<?xml version="1.0" encoding="iso-8859-1"?>
<!-- Generator: Adobe Illustrator 19.0.0, SVG Export Plug-In . SVG Version: 6.00 Build 0)  -->
<svg version="1.1" id="Layer_1" xmlns="http://www.w3.org/2000/svg" xmlns:xlink="http://www.w3.org/1999/xlink" x="0px" y="0px"
	 viewBox="0 0 512 512" style="enable-background:new 0 0 512 512;" xml:space="preserve" fill="currentColor">
<g>
	<g>
		<path d="M427.574,0c-4.512,0-8.17,3.657-8.17,8.17v495.66c0,4.513,3.658,8.17,8.17,8.17s8.17-3.657,8.17-8.17V8.17
			C435.745,3.657,432.087,0,427.574,0z"/>
	</g>
</g>
<g>
	<g>
		<path d="M362.213,0H8.17C3.658,0,0,3.657,0,8.17v495.66c0,4.513,3.658,8.17,8.17,8.17h256c2.167,0,4.245-0.861,5.777-2.392
			l98.043-98.043c1.533-1.534,2.393-3.611,2.393-5.778V8.17C370.383,3.657,366.725,0,362.213,0z M272.34,484.106v-70.148h70.148
			L272.34,484.106z M354.043,397.617H264.17c-4.512,0-8.17,3.657-8.17,8.17v89.872H16.34V16.34h337.702V397.617z"/>
	</g>
</g>
<g>
	<g>
		<path d="M394.894,0c-4.512,0-8.17,3.657-8.17,8.17V495.66h-76.336c-4.512,0-8.17,3.657-8.17,8.17s3.658,8.17,8.17,8.17h84.506
			c4.512,0,8.17-3.657,8.17-8.17V8.17C403.064,3.657,399.406,0,394.894,0z"/>
	</g>
</g>
<g>
	<g>
		<path d="M503.83,0h-43.574c-4.512,0-8.17,3.657-8.17,8.17v430.298c0,0.878,0.142,1.75,0.419,2.583l21.785,65.362
			c1.112,3.337,4.234,5.587,7.751,5.587c3.516,0,6.639-2.25,7.751-5.586l21.789-65.362c0.278-0.833,0.419-1.705,0.419-2.584V8.17
			C512,3.657,508.342,0,503.83,0z M482.041,477.993l-10.451-31.355h20.904L482.041,477.993z M495.66,430.298h-27.234V103.489h27.234
			V430.298z M495.66,87.149h-27.234V59.915h27.234V87.149z M495.66,43.574h-27.234V16.34h27.234V43.574z"/>
	</g>
</g>
<g>
</g>
<g>
</g>
<g>
</g>
<g>
</g>
<g>
</g>
<g>
</g>
<g>
</g>
<g>
</g>
<g>
</g>
<g>
</g>
<g>
</g>
<g>
</g>
<g>
</g>
<g>
</g>
<g>
</g>
</svg>
